<svg width="88" height="87" viewBox="0 0 88 87" fill="none" xmlns="http://www.w3.org/2000/svg">
<path d="M79.1666 3.41675H34.2778V17.4445H39.8889V9.02786H79.1666C80.85 9.02786 81.9722 10.1501 81.9722 11.8334V42.6945C81.9722 44.3779 80.85 45.5001 79.1666 45.5001H42.6944V65.139H27.825L17.4444 73.2751V65.139H9.02775C7.34442 65.139 6.2222 64.0168 6.2222 62.3334V31.4723C6.2222 29.789 7.34442 28.6668 9.02775 28.6668H45.5V23.0556H9.02775C4.25831 23.0556 0.611084 26.7029 0.611084 31.4723V62.3334C0.611084 67.1029 4.25831 70.7501 9.02775 70.7501H11.8333V85.0584L29.5083 70.7501H48.3055V51.1112H79.1666C83.9361 51.1112 87.5833 47.464 87.5833 42.6945V11.8334C87.5833 7.06397 83.9361 3.41675 79.1666 3.41675Z" fill="#FFDE88"/>
<path d="M12.3944 59.2473H19.1277L20.8111 54.7584H29.5083L31.1916 59.2473H37.925L28.3861 34.2778H21.6527L12.3944 59.2473ZM25.0194 41.2917L27.825 49.9889H22.2139L25.0194 41.2917Z" fill="url(#paint0_linear_516_106)"/>
<path d="M57.3333 13.6667V17.0001H50.6666V20.3334H54.65C53.25 21.5667 52.3333 23.3334 52.3333 25.3334C52.3333 29.0001 55.3333 32.0001 59 32.0001C62.6666 32.0001 65.6666 29.0001 65.6666 25.3334C65.6666 23.3334 64.75 21.5667 63.35 20.3334H67.3333V17.0001H60.6666V13.6667M69 13.6667V33.6667H72.3333V25.3334H77.3333V22.0001H72.3333V13.6667M59 22.0001C60.8666 22.0001 62.3333 23.4667 62.3333 25.3334C62.3333 27.2001 60.8666 28.6667 59 28.6667C57.1333 28.6667 55.6666 27.2001 55.6666 25.3334C55.6666 23.4667 57.1333 22.0001 59 22.0001ZM55.6666 33.6667V40.3334H72.3333V37.0001H59V33.6667H55.6666Z" fill="url(#paint1_linear_516_106)"/>
<path d="M43.5311 81C42.5946 81 41.6965 80.628 41.0343 79.9658C40.3721 79.3036 40.0001 78.4054 40.0001 77.4689V54.8825C40.0001 54.7078 40.052 54.5371 40.1491 54.3919C40.2462 54.2467 40.3842 54.1336 40.5456 54.0669C40.707 54.0002 40.8846 53.9828 41.0559 54.0171C41.2272 54.0513 41.3845 54.1356 41.5078 54.2593L46.5449 59.2963C46.8759 59.6275 47.3249 59.8135 47.7931 59.8136H64.7175C65.654 59.8136 66.5521 60.1857 67.2143 60.8479C67.8765 61.5101 68.2485 62.4082 68.2485 63.3447V77.4689C68.2485 78.4054 67.8765 79.3036 67.2143 79.9658C66.5521 80.628 65.654 81 64.7175 81H43.5311Z" fill="white"/>
<path d="M64.7175 79.2345C65.1857 79.2345 65.6348 79.0485 65.9659 78.7174C66.297 78.3863 66.483 77.9372 66.483 77.4689V63.3447C66.483 62.8765 66.297 62.4274 65.9659 62.0963C65.6348 61.7652 65.1857 61.5792 64.7175 61.5792H47.7931C46.8567 61.579 45.9587 61.2068 45.2966 60.5446L41.7656 57.0135V77.4689C41.7656 77.9372 41.9516 78.3863 42.2827 78.7174C42.6138 79.0485 43.0629 79.2345 43.5311 79.2345H64.7175ZM43.5311 81C42.5946 81 41.6965 80.628 41.0343 79.9658C40.3721 79.3036 40.0001 78.4054 40.0001 77.4689V54.8825C40.0001 54.7078 40.052 54.5371 40.1491 54.3919C40.2462 54.2467 40.3842 54.1336 40.5456 54.0669C40.707 54.0002 40.8846 53.9828 41.0559 54.0171C41.2272 54.0513 41.3845 54.1356 41.5078 54.2593L46.5449 59.2963C46.8759 59.6275 47.3249 59.8135 47.7931 59.8136H64.7175C65.654 59.8136 66.5521 60.1857 67.2143 60.8479C67.8765 61.5101 68.2485 62.4082 68.2485 63.3447V77.4689C68.2485 78.4054 67.8765 79.3036 67.2143 79.9658C66.5521 80.628 65.654 81 64.7175 81H43.5311Z" fill="#FFC5C5"/>
<path d="M55.7733 72.596C56.1172 73.1316 56.6256 73.5411 57.2222 73.7629C57.8188 73.9848 58.4712 74.007 59.0815 73.8263C59.6918 73.6455 60.227 73.2716 60.6065 72.7607C60.9861 72.2497 61.1896 71.6294 61.1864 70.9929C61.186 70.4658 61.0442 69.9485 60.7756 69.495C60.5071 69.0415 60.1216 68.6684 59.6596 68.4148C59.1976 68.1611 58.6759 68.0362 58.1491 68.053C57.6223 68.0699 57.1097 68.2279 56.6648 68.5106C56.8961 67.8238 57.3269 67.0911 58.0367 66.3566C58.1725 66.2162 58.2469 66.0275 58.2436 65.8321C58.2403 65.6368 58.1595 65.4508 58.019 65.315C57.8785 65.1792 57.6899 65.1047 57.4945 65.1081C57.2992 65.1114 57.1131 65.1921 56.9773 65.3326C54.3538 68.0515 54.6945 71.007 55.7733 72.5925V72.596ZM48.7111 72.596C49.055 73.1316 49.5635 73.5411 50.1601 73.7629C50.7567 73.9848 51.4091 74.007 52.0194 73.8263C52.6297 73.6455 53.1648 73.2716 53.5444 72.7607C53.924 72.2497 54.1274 71.6294 54.1242 70.9929C54.1239 70.4658 53.9821 69.9485 53.7135 69.495C53.4449 69.0415 53.0595 68.6684 52.5975 68.4148C52.1355 68.1611 51.6138 68.0362 51.087 68.053C50.5602 68.0699 50.0476 68.2279 49.6027 68.5106C49.834 67.8238 50.2648 67.0911 50.9745 66.3566C51.1103 66.2162 51.1848 66.0275 51.1814 65.8321C51.1781 65.6368 51.0974 65.4508 50.9569 65.315C50.8164 65.1792 50.6277 65.1047 50.4324 65.1081C50.237 65.1114 50.051 65.1921 49.9152 65.3326C47.2916 68.0515 47.6324 71.007 48.7111 72.5925V72.596Z" fill="#FF8888"/>
<defs>
<linearGradient id="paint0_linear_516_106" x1="25.1597" y1="34.2778" x2="25.1597" y2="59.2473" gradientUnits="userSpaceOnUse">
<stop stop-color="#FFC6C6"/>
<stop offset="1" stop-color="#FF8888"/>
</linearGradient>
<linearGradient id="paint1_linear_516_106" x1="64" y1="13.6667" x2="64" y2="40.3334" gradientUnits="userSpaceOnUse">
<stop stop-color="#FF8888"/>
<stop offset="1" stop-color="#FFC6C6"/>
</linearGradient>
</defs>
</svg>
